# xmcd
#
# Track frame offsets:
#	182
#	9825
#	20910
#	36557
#	48972
#	62145
#	73225
#	83875
#	97680
#	109090
#	119887
#	130647
#	140837
#	153637
#	169955
#	180982
#	193275
#	205522
#
# Disc length: 2928
#
# Revision: 1
# Processed by: cddbd v1.5.1PL0 Copyright (c) Steve Scherf et al.
# Submitted via: ExactAudioCopy v0.90b4
# Normalized: r0:DSETVAR1
#
DISCID=050b6e12
DTITLE=Various Artist - The Nashville Dream - Cd 1
DYEAR=1999
DGENRE=
TTITLE0=Jim Reeves - Billy Bayou
TTITLE1=Patsy Cline - Honky tonk merry go round
TTITLE2=Jerry Lee Lewis - Cold cold heart
TTITLE3=Billie Jo Spears - my own kind of hat
TTITLE4=Anny Murray - All the time
TTITLE5=Gearoge Jones - Once a day
TTITLE6=Jan Howard - I wish I could fall in love again
TTITLE7=Billie Jo Spears - Fever
TTITLE8=Don Williams - Spend some time with me
TTITLE9=Anne Murray - Some birds
TTITLE10=Don Gibson - Lonesome number one
TTITLE11=Barbara Mandrell - Release me
TTITLE12=Jack Greene - Beautifull lady
TTITLE13=Jeannie C. Riley - The cotton patch
TTITLE14=Johnny Paycheck - Jukebox Charlie
TTITLE15=Patsy Cline - Today, tomorrow and forever
TTITLE16=Don Gibson - Oh lonesome me
TTITLE17=Jerry Lee Lewis - Bottles and barstools
EXTD=
EXTT0=
EXTT1=
EXTT2=
EXTT3=
EXTT4=
EXTT5=
EXTT6=
EXTT7=
EXTT8=
EXTT9=
EXTT10=
EXTT11=
EXTT12=
EXTT13=
EXTT14=
EXTT15=
EXTT16=
EXTT17=
PLAYORDER=
